<svg width="22" height="22" viewBox="0 0 22 22" fill="none" xmlns="http://www.w3.org/2000/svg">
<path d="M21.2929 20.7071C21.6834 20.3166 21.6834 19.6834 21.2929 19.2929L13.7071 11.7071C13.3166 11.3166 13.3166 10.6834 13.7071 10.2929L21.2929 2.70711C21.6834 2.31658 21.6834 1.68342 21.2929 1.29289L20.6872 0.687192C20.3045 0.304532 19.6869 0.295711 19.2935 0.667286L11.6866 7.85152C11.3012 8.21551 10.6988 8.21551 10.3134 7.85152L2.70653 0.667286C2.3131 0.295711 1.69546 0.304534 1.3128 0.687195L0.707103 1.29289C0.31658 1.68342 0.316581 2.31658 0.707105 2.7071L8.29289 10.2929C8.68342 10.6834 8.68342 11.3166 8.29289 11.7071L0.707104 19.2929C0.31658 19.6834 0.316581 20.3166 0.707103 20.7071L1.29288 21.2929C1.68341 21.6834 2.31657 21.6834 2.7071 21.2929L10.2929 13.7071C10.6834 13.3166 11.3166 13.3166 11.7071 13.7071L19.2929 21.2929C19.6834 21.6834 20.3166 21.6834 20.7071 21.2929L21.2929 20.7071Z" fill="white" fill-opacity="0.6"/>
</svg>
