<svg width="22" height="22" viewBox="0 0 22 22" fill="none" xmlns="http://www.w3.org/2000/svg">
<path d="M14.473 2.73482C13.3737 1.60902 11.9709 0.815437 10.4293 0.447348C8.88777 0.0792594 7.27147 0.151957 5.77042 0.656896C4.26935 1.16184 2.9459 2.07804 1.95556 3.29783C0.965222 4.51764 0.349147 5.99035 0.179741 7.54293C0.0103334 9.09549 0.29463 10.6634 0.999221 12.0624C1.70381 13.4614 2.79943 14.6334 4.1573 15.4406C5.51519 16.2478 7.07893 16.6567 8.66476 16.6193C10.2506 16.5819 11.7926 16.0997 13.1096 15.2293L19.1335 21.3973C19.208 21.4734 19.3103 21.5175 19.4178 21.5196C19.5253 21.5217 19.6293 21.4817 19.7068 21.4083L21.208 19.9876C21.2855 19.9142 21.3303 19.8136 21.3324 19.7077C21.3345 19.6019 21.2937 19.4996 21.2193 19.4232L15.1954 13.2554C16.3503 11.6979 16.911 9.78963 16.7788 7.8657C16.6467 5.94179 15.8303 4.12519 14.473 2.73482ZM12.5967 12.6494C11.7469 13.4536 10.6739 13.9918 9.51343 14.1957C8.35293 14.3997 7.15705 14.2603 6.07703 13.7952C4.99699 13.3301 4.08131 12.5602 3.44579 11.5828C2.8103 10.6055 2.48345 9.46453 2.50667 8.30434C2.52986 7.14413 2.90203 6.01674 3.57614 5.06475C4.25022 4.11277 5.19596 3.37893 6.29374 2.95603C7.39152 2.53313 8.59205 2.44018 9.74349 2.68893C10.8949 2.93766 11.9456 3.51692 12.7626 4.35346C13.8582 5.47523 14.4562 6.97946 14.4251 8.53525C14.394 10.091 13.7363 11.5709 12.5967 12.6494Z" fill="#33516D"/>
<path d="M4.0513 6.78886C3.38107 6.78886 3.37997 7.81418 4.0513 7.81418C4.72152 7.81418 4.72264 6.78886 4.0513 6.78886Z" fill="#33516D"/>
<path d="M8.72356 3.50409C7.87353 3.47891 7.03098 3.6673 6.27542 4.05145C5.51983 4.43562 4.87611 5.00291 4.40495 5.69982C4.1202 6.13856 4.92867 6.52625 5.21191 6.08986C5.93462 4.97629 7.30812 4.26931 8.79238 4.30589C9.54329 4.33193 10.276 4.54013 10.9255 4.912C11.575 5.28385 12.1212 5.80788 12.5155 6.43751C12.8001 6.89924 13.5456 6.47938 13.2628 6.02064C12.3535 4.54565 10.5873 3.54563 8.72356 3.50409Z" fill="#33516D"/>
</svg>
