<svg width="18" height="18" viewBox="0 0 18 18" fill="none" xmlns="http://www.w3.org/2000/svg">
<path d="M9 0C4.02975 0 0 4.02975 0 9C0 13.9702 4.02975 18 9 18C13.9702 18 18 13.9702 18 9C18 4.02975 13.9702 0 9 0ZM9.75 12.0427V9.75H11.9955C11.9513 10.6073 11.8365 11.43 11.6535 12.2092C11.0363 12.1192 10.398 12.0682 9.75 12.0427V12.0427ZM11.2177 13.6642C10.8435 14.6617 10.3485 15.537 9.75 16.2562V13.5413C10.2495 13.5623 10.7392 13.602 11.2177 13.6642ZM9.75 8.25V5.98875C10.401 5.96325 11.0408 5.9115 11.661 5.82075C11.8395 6.591 11.9528 7.404 11.9955 8.25H9.75ZM9.75 4.4895V1.74375C10.3545 2.4705 10.8532 3.35625 11.2282 4.36575C10.7467 4.42875 10.2533 4.4685 9.75 4.4895ZM11.7773 2.03925C12.705 2.41125 13.5428 2.96025 14.2448 3.64875C13.7633 3.82425 13.2615 3.98025 12.7305 4.104C12.4725 3.36 12.1493 2.6715 11.7773 2.03925V2.03925ZM6.3465 12.2092C6.1635 11.43 6.048 10.6073 6.0045 9.75H8.25V12.0427C7.60125 12.0682 6.9645 12.1192 6.3465 12.2092ZM8.25 13.5413V16.2562C7.6515 15.537 7.1565 14.6617 6.78225 13.6642C7.26075 13.602 7.7505 13.5623 8.25 13.5413ZM6.0045 8.25C6.04725 7.404 6.15975 6.591 6.339 5.82075C6.95925 5.9115 7.599 5.96325 8.25 5.98875V8.25H6.0045ZM6.7725 4.36575C7.1475 3.35625 7.64625 2.4705 8.25 1.74375V4.4895C7.74675 4.4685 7.25325 4.42875 6.7725 4.36575ZM5.26875 4.10325C4.73775 3.9795 4.236 3.8235 3.75525 3.648C4.458 2.9595 5.295 2.4105 6.22275 2.0385C5.85075 2.6715 5.5275 3.36 5.26875 4.10325V4.10325ZM4.857 5.54175C4.659 6.405 4.5315 7.31175 4.488 8.25H1.53825C1.662 7.0065 2.0925 5.85225 2.751 4.8615C3.411 5.13225 4.113 5.364 4.857 5.54175ZM4.86375 12.4882C4.12275 12.6652 3.42375 12.8948 2.766 13.1633C2.0985 12.1673 1.66275 11.004 1.53825 9.75H4.48875C4.53225 10.6987 4.662 11.616 4.86375 12.4882ZM5.2785 13.926C5.535 14.658 5.8545 15.3368 6.22125 15.96C5.304 15.5925 4.47675 15.0518 3.77925 14.3738C4.25625 14.202 4.7535 14.0475 5.2785 13.926V13.926ZM12.7215 13.926C13.2465 14.0483 13.743 14.2013 14.2208 14.3738C13.5225 15.051 12.6953 15.5925 11.778 15.9608C12.1448 15.3368 12.4642 14.658 12.7215 13.926ZM13.1362 12.4882C13.3387 11.616 13.4678 10.6987 13.512 9.75H16.4625C16.3373 11.004 15.9015 12.1673 15.234 13.1633C14.5763 12.8948 13.8765 12.6652 13.1362 12.4882V12.4882ZM13.512 8.25C13.4685 7.31175 13.3403 6.405 13.143 5.54175C13.887 5.364 14.5898 5.13225 15.2498 4.8615C15.9075 5.85225 16.338 7.0065 16.4617 8.25H13.512Z" fill="url(#paint0_linear)"/>
<defs>
<linearGradient id="paint0_linear" x1="0" y1="0" x2="18" y2="17.5" gradientUnits="userSpaceOnUse">
<stop stop-color="#C22326"/>
<stop offset="1" stop-color="#26114D"/>
</linearGradient>
</defs>
</svg>
